<svg width="222" height="157" viewBox="0 0 222 157" fill="none" xmlns="http://www.w3.org/2000/svg">
<rect x="1" y="1" width="220" height="155" rx="19" stroke="white" stroke-width="2"/>
<path d="M68.0966 87H63.5625L69.4517 69.5455H75.0682L80.9574 87H76.4233L72.3239 73.9432H72.1875L68.0966 87ZM67.4915 80.1307H76.9688V83.3352H67.4915V80.1307ZM87.0043 79.5341V87H82.8366V73.9091H86.7997V76.3125H86.9446C87.2344 75.5114 87.7287 74.8835 88.4276 74.429C89.1264 73.9688 89.9588 73.7386 90.9247 73.7386C91.8452 73.7386 92.6435 73.946 93.3196 74.3608C94.0014 74.7699 94.5298 75.3437 94.9048 76.0824C95.2855 76.8153 95.473 77.6733 95.4673 78.6562V87H91.2997V79.4744C91.3054 78.7472 91.1207 78.179 90.7457 77.7699C90.3764 77.3608 89.8622 77.1562 89.2031 77.1562C88.7656 77.1562 88.3793 77.2528 88.044 77.446C87.7145 77.6335 87.4588 77.9034 87.277 78.2557C87.1009 78.608 87.0099 79.0341 87.0043 79.5341ZM104.15 92.1818C102.906 92.1818 101.84 92.0085 100.954 91.6619C100.067 91.3153 99.3714 90.8409 98.8658 90.2386C98.3601 89.6364 98.0561 88.9545 97.9538 88.1932L101.9 87.9716C101.974 88.2386 102.11 88.4716 102.309 88.6705C102.513 88.8693 102.778 89.0227 103.102 89.1307C103.431 89.2386 103.817 89.2926 104.261 89.2926C104.96 89.2926 105.536 89.1222 105.991 88.7812C106.451 88.446 106.681 87.858 106.681 87.017V84.7159H106.536C106.371 85.1193 106.121 85.4801 105.786 85.7983C105.451 86.1165 105.033 86.3665 104.533 86.5483C104.039 86.7301 103.471 86.821 102.829 86.821C101.874 86.821 100.999 86.5994 100.204 86.1562C99.4141 85.7074 98.7805 85.0142 98.3033 84.0767C97.8317 83.1335 97.5959 81.9205 97.5959 80.4375C97.5959 78.9091 97.8402 77.6506 98.3288 76.6619C98.8175 75.6676 99.4567 74.9318 100.246 74.4545C101.042 73.9773 101.897 73.7386 102.812 73.7386C103.499 73.7386 104.087 73.858 104.576 74.0966C105.07 74.3295 105.477 74.6307 105.795 75C106.113 75.3693 106.354 75.7528 106.519 76.1506H106.638V73.9091H110.789V87.0511C110.789 88.1591 110.511 89.0938 109.954 89.8551C109.397 90.6165 108.619 91.1932 107.619 91.5852C106.619 91.983 105.462 92.1818 104.15 92.1818ZM104.278 83.7869C104.783 83.7869 105.215 83.6534 105.573 83.3864C105.931 83.1193 106.207 82.7358 106.4 82.2358C106.593 81.7358 106.69 81.1364 106.69 80.4375C106.69 79.7273 106.593 79.1165 106.4 78.6051C106.212 78.0881 105.937 77.6903 105.573 77.4119C105.215 77.1335 104.783 76.9943 104.278 76.9943C103.761 76.9943 103.323 77.1364 102.965 77.4205C102.607 77.7045 102.335 78.1051 102.147 78.6222C101.965 79.1335 101.874 79.7386 101.874 80.4375C101.874 81.1364 101.968 81.7358 102.156 82.2358C102.343 82.7358 102.613 83.1193 102.965 83.3864C103.323 83.6534 103.761 83.7869 104.278 83.7869ZM121.892 81.3494V73.9091H126.051V87H122.08V84.5625H121.943C121.653 85.3636 121.159 86 120.46 86.4716C119.767 86.9375 118.929 87.1705 117.946 87.1705C117.054 87.1705 116.27 86.9659 115.594 86.5568C114.918 86.1477 114.392 85.5767 114.017 84.8438C113.642 84.1051 113.452 83.2415 113.446 82.2528V73.9091H117.614V81.4347C117.619 82.1449 117.807 82.7045 118.176 83.1136C118.545 83.5227 119.048 83.7273 119.685 83.7273C120.099 83.7273 120.472 83.6364 120.801 83.4545C121.136 83.267 121.401 82.9972 121.594 82.6449C121.793 82.2869 121.892 81.8551 121.892 81.3494ZM132.871 69.5455V87H128.704V69.5455H132.871ZM139.214 87.2216C138.379 87.2216 137.638 87.0824 136.99 86.804C136.348 86.5199 135.839 86.0937 135.464 85.5256C135.095 84.9517 134.911 84.233 134.911 83.3693C134.911 82.642 135.038 82.0284 135.294 81.5284C135.55 81.0284 135.902 80.6222 136.351 80.3097C136.8 79.9972 137.317 79.7614 137.902 79.6023C138.487 79.4375 139.112 79.3267 139.777 79.2699C140.521 79.2017 141.121 79.1307 141.575 79.0568C142.03 78.9773 142.359 78.8665 142.564 78.7244C142.774 78.5767 142.879 78.3693 142.879 78.1023V78.0597C142.879 77.6222 142.729 77.2841 142.428 77.0455C142.126 76.8068 141.72 76.6875 141.209 76.6875C140.658 76.6875 140.214 76.8068 139.879 77.0455C139.544 77.2841 139.331 77.6136 139.24 78.0341L135.396 77.8977C135.51 77.1023 135.803 76.392 136.274 75.767C136.751 75.1364 137.405 74.642 138.234 74.2841C139.07 73.9205 140.072 73.7386 141.243 73.7386C142.078 73.7386 142.848 73.8381 143.553 74.0369C144.257 74.2301 144.871 74.5142 145.393 74.8892C145.916 75.2585 146.32 75.7131 146.604 76.2528C146.893 76.7926 147.038 77.4091 147.038 78.1023V87H143.118V85.1761H143.016C142.783 85.6193 142.484 85.9943 142.121 86.3011C141.763 86.608 141.339 86.8381 140.851 86.9915C140.368 87.1449 139.822 87.2216 139.214 87.2216ZM140.501 84.4943C140.95 84.4943 141.354 84.4034 141.712 84.2216C142.075 84.0398 142.365 83.7898 142.581 83.4716C142.797 83.1477 142.905 82.7727 142.905 82.3466V81.1023C142.786 81.1648 142.641 81.2216 142.47 81.2727C142.305 81.3239 142.124 81.3722 141.925 81.4176C141.726 81.4631 141.521 81.5028 141.311 81.5369C141.101 81.571 140.899 81.6023 140.706 81.6307C140.314 81.6932 139.979 81.7898 139.7 81.9205C139.428 82.0511 139.217 82.2216 139.07 82.4318C138.928 82.6364 138.857 82.8807 138.857 83.1648C138.857 83.5966 139.01 83.9261 139.317 84.1534C139.629 84.3807 140.024 84.4943 140.501 84.4943ZM149.587 87V73.9091H153.635V76.2955H153.771C154.01 75.4318 154.399 74.7898 154.939 74.3693C155.479 73.9432 156.107 73.7301 156.822 73.7301C157.016 73.7301 157.214 73.7443 157.419 73.7727C157.624 73.7955 157.814 73.8324 157.99 73.8835V77.5057C157.791 77.4375 157.53 77.3835 157.206 77.3438C156.888 77.304 156.604 77.2841 156.354 77.2841C155.859 77.2841 155.413 77.3949 155.016 77.6165C154.624 77.8324 154.314 78.1364 154.087 78.5284C153.865 78.9148 153.754 79.3693 153.754 79.892V87H149.587Z" fill="white"/>
</svg>
