<svg width="222" height="157" viewBox="0 0 222 157" fill="none" xmlns="http://www.w3.org/2000/svg">
<rect x="1" y="1" width="220" height="155" rx="19" stroke="white" stroke-width="2"/>
<path d="M50.6648 87.2472C50.0511 87.2472 49.5256 87.0312 49.0881 86.5994C48.6563 86.1676 48.4432 85.6449 48.4489 85.0312C48.4432 84.429 48.6563 83.9148 49.0881 83.4886C49.5256 83.0568 50.0511 82.8409 50.6648 82.8409C51.2443 82.8409 51.7557 83.0568 52.1989 83.4886C52.6477 83.9148 52.875 84.429 52.8807 85.0312C52.875 85.4403 52.767 85.8125 52.5568 86.1477C52.3523 86.483 52.0824 86.75 51.7472 86.9489C51.4176 87.1477 51.0568 87.2472 50.6648 87.2472ZM70.4886 69.5455V87H66.9091L59.9631 76.9261H59.8523V87H55.6335V69.5455H59.2642L66.1335 79.6023H66.2784V69.5455H70.4886ZM73.1413 87V69.5455H85.3118V72.9716H77.3601V76.5511H84.6896V79.9858H77.3601V83.5739H85.3118V87H73.1413ZM87.3828 72.9716V69.5455H102.136V72.9716H96.843V87H92.6839V72.9716H87.3828ZM125.196 75.8693H120.935C120.878 75.4318 120.761 75.0369 120.585 74.6847C120.409 74.3324 120.176 74.0312 119.886 73.7812C119.597 73.5312 119.253 73.3409 118.855 73.2102C118.463 73.0739 118.028 73.0057 117.551 73.0057C116.705 73.0057 115.974 73.2131 115.361 73.6278C114.753 74.0426 114.284 74.642 113.955 75.4261C113.631 76.2102 113.469 77.1591 113.469 78.2727C113.469 79.4318 113.634 80.4034 113.963 81.1875C114.298 81.9659 114.767 82.554 115.369 82.9517C115.977 83.3437 116.696 83.5398 117.526 83.5398C117.991 83.5398 118.415 83.4801 118.795 83.3608C119.182 83.2415 119.52 83.0682 119.81 82.8409C120.105 82.608 120.347 82.3267 120.534 81.9972C120.727 81.6619 120.861 81.2841 120.935 80.8636L125.196 80.8892C125.122 81.6619 124.898 82.4233 124.523 83.1733C124.153 83.9233 123.645 84.608 122.997 85.2273C122.349 85.8409 121.56 86.3295 120.628 86.6932C119.702 87.0568 118.639 87.2386 117.44 87.2386C115.861 87.2386 114.446 86.892 113.196 86.1989C111.952 85.5 110.969 84.483 110.247 83.1477C109.526 81.8125 109.165 80.1875 109.165 78.2727C109.165 76.3523 109.531 74.7244 110.264 73.3892C110.997 72.054 111.989 71.0398 113.239 70.3466C114.489 69.6534 115.889 69.3068 117.44 69.3068C118.497 69.3068 119.474 69.4545 120.372 69.75C121.27 70.0398 122.06 70.4659 122.741 71.0284C123.423 71.5852 123.977 72.2699 124.403 73.0824C124.83 73.8949 125.094 74.8239 125.196 75.8693ZM144.085 78.2727C144.085 80.1932 143.715 81.821 142.977 83.1562C142.238 84.4915 141.238 85.5057 139.977 86.1989C138.721 86.892 137.312 87.2386 135.749 87.2386C134.181 87.2386 132.769 86.8892 131.513 86.1903C130.258 85.4915 129.261 84.4773 128.522 83.1477C127.789 81.8125 127.423 80.1875 127.423 78.2727C127.423 76.3523 127.789 74.7244 128.522 73.3892C129.261 72.054 130.258 71.0398 131.513 70.3466C132.769 69.6534 134.181 69.3068 135.749 69.3068C137.312 69.3068 138.721 69.6534 139.977 70.3466C141.238 71.0398 142.238 72.054 142.977 73.3892C143.715 74.7244 144.085 76.3523 144.085 78.2727ZM139.772 78.2727C139.772 77.1364 139.61 76.1761 139.286 75.392C138.968 74.608 138.508 74.0142 137.906 73.6108C137.309 73.2074 136.59 73.0057 135.749 73.0057C134.914 73.0057 134.195 73.2074 133.593 73.6108C132.991 74.0142 132.528 74.608 132.204 75.392C131.886 76.1761 131.727 77.1364 131.727 78.2727C131.727 79.4091 131.886 80.3693 132.204 81.1534C132.528 81.9375 132.991 82.5312 133.593 82.9347C134.195 83.3381 134.914 83.5398 135.749 83.5398C136.59 83.5398 137.309 83.3381 137.906 82.9347C138.508 82.5312 138.968 81.9375 139.286 81.1534C139.61 80.3693 139.772 79.4091 139.772 78.2727ZM146.548 87V69.5455H153.758C155.065 69.5455 156.192 69.7812 157.141 70.2528C158.096 70.7187 158.832 71.3892 159.349 72.2642C159.866 73.1335 160.124 74.1648 160.124 75.358C160.124 76.5682 159.86 77.5966 159.332 78.4432C158.803 79.2841 158.053 79.9261 157.082 80.3693C156.11 80.8068 154.96 81.0256 153.63 81.0256H149.07V77.7017H152.846C153.482 77.7017 154.013 77.6193 154.44 77.4545C154.871 77.2841 155.198 77.0284 155.42 76.6875C155.641 76.3409 155.752 75.8977 155.752 75.358C155.752 74.8182 155.641 74.3722 155.42 74.0199C155.198 73.6619 154.871 73.3949 154.44 73.2188C154.008 73.0369 153.477 72.946 152.846 72.946H150.766V87H146.548ZM156.374 79.0227L160.721 87H156.119L151.857 79.0227H156.374ZM162.438 87V69.5455H174.609V72.9716H166.657V76.5511H173.987V79.9858H166.657V83.5739H174.609V87H162.438Z" fill="white"/>
</svg>
