<svg width="222" height="157" viewBox="0 0 222 157" fill="none" xmlns="http://www.w3.org/2000/svg">
<rect x="1" y="1" width="220" height="155" rx="19" stroke="white" stroke-width="2"/>
<path d="M91.4119 69.5455H95.571V81.6136C95.5653 82.7443 95.2955 83.733 94.7614 84.5795C94.2273 85.4205 93.4886 86.0739 92.5455 86.5398C91.608 87.0057 90.5227 87.2386 89.2898 87.2386C88.1989 87.2386 87.2074 87.0483 86.3153 86.6676C85.429 86.2869 84.7216 85.696 84.1932 84.8949C83.6705 84.0937 83.4119 83.0682 83.4176 81.8182H87.6193C87.6364 82.267 87.7216 82.6506 87.875 82.9688C88.0341 83.2812 88.2528 83.517 88.5312 83.6761C88.8097 83.8352 89.142 83.9148 89.5284 83.9148C89.9318 83.9148 90.2727 83.8295 90.5511 83.6591C90.8295 83.483 91.0398 83.2244 91.1818 82.8835C91.3295 82.5426 91.4063 82.1193 91.4119 81.6136V69.5455ZM101.91 87.2216C101.075 87.2216 100.333 87.0824 99.6854 86.804C99.0433 86.5199 98.5348 86.0937 98.1598 85.5256C97.7905 84.9517 97.6058 84.233 97.6058 83.3693C97.6058 82.642 97.7337 82.0284 97.9893 81.5284C98.245 81.0284 98.5973 80.6222 99.0462 80.3097C99.495 79.9972 100.012 79.7614 100.597 79.6023C101.183 79.4375 101.808 79.3267 102.472 79.2699C103.217 79.2017 103.816 79.1307 104.271 79.0568C104.725 78.9773 105.055 78.8665 105.259 78.7244C105.469 78.5767 105.575 78.3693 105.575 78.1023V78.0597C105.575 77.6222 105.424 77.2841 105.123 77.0455C104.822 76.8068 104.415 76.6875 103.904 76.6875C103.353 76.6875 102.91 76.8068 102.575 77.0455C102.239 77.2841 102.026 77.6136 101.935 78.0341L98.0916 77.8977C98.2053 77.1023 98.4979 76.392 98.9695 75.767C99.4467 75.1364 100.1 74.642 100.93 74.2841C101.765 73.9205 102.768 73.7386 103.938 73.7386C104.773 73.7386 105.543 73.8381 106.248 74.0369C106.952 74.2301 107.566 74.5142 108.089 74.8892C108.612 75.2585 109.015 75.7131 109.299 76.2528C109.589 76.7926 109.734 77.4091 109.734 78.1023V87H105.813V85.1761H105.711C105.478 85.6193 105.18 85.9943 104.816 86.3011C104.458 86.608 104.035 86.8381 103.546 86.9915C103.063 87.1449 102.518 87.2216 101.91 87.2216ZM103.197 84.4943C103.646 84.4943 104.049 84.4034 104.407 84.2216C104.771 84.0398 105.06 83.7898 105.276 83.4716C105.492 83.1477 105.6 82.7727 105.6 82.3466V81.1023C105.481 81.1648 105.336 81.2216 105.165 81.2727C105.001 81.3239 104.819 81.3722 104.62 81.4176C104.421 81.4631 104.217 81.5028 104.006 81.5369C103.796 81.571 103.594 81.6023 103.401 81.6307C103.009 81.6932 102.674 81.7898 102.396 81.9205C102.123 82.0511 101.913 82.2216 101.765 82.4318C101.623 82.6364 101.552 82.8807 101.552 83.1648C101.552 83.5966 101.705 83.9261 102.012 84.1534C102.325 84.3807 102.719 84.4943 103.197 84.4943ZM124.512 73.9091L120.021 87H115.248L110.765 73.9091H115.154L117.566 82.9261H117.702L120.123 73.9091H124.512ZM129.449 87.2216C128.614 87.2216 127.872 87.0824 127.224 86.804C126.582 86.5199 126.074 86.0937 125.699 85.5256C125.33 84.9517 125.145 84.233 125.145 83.3693C125.145 82.642 125.273 82.0284 125.528 81.5284C125.784 81.0284 126.136 80.6222 126.585 80.3097C127.034 79.9972 127.551 79.7614 128.136 79.6023C128.722 79.4375 129.347 79.3267 130.011 79.2699C130.756 79.2017 131.355 79.1307 131.81 79.0568C132.264 78.9773 132.594 78.8665 132.798 78.7244C133.009 78.5767 133.114 78.3693 133.114 78.1023V78.0597C133.114 77.6222 132.963 77.2841 132.662 77.0455C132.361 76.8068 131.955 76.6875 131.443 76.6875C130.892 76.6875 130.449 76.8068 130.114 77.0455C129.778 77.2841 129.565 77.6136 129.474 78.0341L125.631 77.8977C125.744 77.1023 126.037 76.392 126.509 75.767C126.986 75.1364 127.639 74.642 128.469 74.2841C129.304 73.9205 130.307 73.7386 131.477 73.7386C132.313 73.7386 133.082 73.8381 133.787 74.0369C134.491 74.2301 135.105 74.5142 135.628 74.8892C136.151 75.2585 136.554 75.7131 136.838 76.2528C137.128 76.7926 137.273 77.4091 137.273 78.1023V87H133.352V85.1761H133.25C133.017 85.6193 132.719 85.9943 132.355 86.3011C131.997 86.608 131.574 86.8381 131.085 86.9915C130.602 87.1449 130.057 87.2216 129.449 87.2216ZM130.736 84.4943C131.185 84.4943 131.588 84.4034 131.946 84.2216C132.31 84.0398 132.599 83.7898 132.815 83.4716C133.031 83.1477 133.139 82.7727 133.139 82.3466V81.1023C133.02 81.1648 132.875 81.2216 132.705 81.2727C132.54 81.3239 132.358 81.3722 132.159 81.4176C131.96 81.4631 131.756 81.5028 131.545 81.5369C131.335 81.571 131.134 81.6023 130.94 81.6307C130.548 81.6932 130.213 81.7898 129.935 81.9205C129.662 82.0511 129.452 82.2216 129.304 82.4318C129.162 82.6364 129.091 82.8807 129.091 83.1648C129.091 83.5966 129.244 83.9261 129.551 84.1534C129.864 84.3807 130.259 84.4943 130.736 84.4943Z" fill="white"/>
</svg>
