<svg width="222" height="157" viewBox="0 0 222 157" fill="none" xmlns="http://www.w3.org/2000/svg">
<rect x="1" y="1" width="220" height="155" rx="19" stroke="white" stroke-width="2"/>
<path d="M61.321 87V69.5455H68.5312C69.8381 69.5455 70.9659 69.7812 71.9148 70.2528C72.8693 70.7187 73.6051 71.3892 74.1222 72.2642C74.6392 73.1335 74.8977 74.1648 74.8977 75.358C74.8977 76.5682 74.6335 77.5966 74.1051 78.4432C73.5767 79.2841 72.8267 79.9261 71.8551 80.3693C70.8835 80.8068 69.733 81.0256 68.4034 81.0256H63.8438V77.7017H67.6193C68.2557 77.7017 68.7869 77.6193 69.2131 77.4545C69.6449 77.2841 69.9716 77.0284 70.1932 76.6875C70.4148 76.3409 70.5256 75.8977 70.5256 75.358C70.5256 74.8182 70.4148 74.3722 70.1932 74.0199C69.9716 73.6619 69.6449 73.3949 69.2131 73.2188C68.7813 73.0369 68.25 72.946 67.6193 72.946H65.5398V87H61.321ZM71.1477 79.0227L75.4943 87H70.892L66.6307 79.0227H71.1477ZM83.0732 87.2472C81.7038 87.2472 80.522 86.9773 79.5277 86.4375C78.5391 85.892 77.7777 85.1165 77.2436 84.1108C76.7152 83.0994 76.451 81.8977 76.451 80.5057C76.451 79.1534 76.718 77.9716 77.2521 76.9602C77.7862 75.9432 78.5391 75.1534 79.5107 74.5909C80.4822 74.0227 81.6271 73.7386 82.9453 73.7386C83.8771 73.7386 84.7294 73.8835 85.5021 74.1733C86.2749 74.4631 86.9425 74.892 87.505 75.4602C88.0675 76.0284 88.505 76.7301 88.8175 77.5653C89.13 78.3949 89.2862 79.3466 89.2862 80.4205V81.4602H77.9084V79.0398H85.4084C85.4027 78.5966 85.2976 78.2017 85.093 77.8551C84.8885 77.5085 84.6072 77.2386 84.2493 77.0455C83.897 76.8466 83.4908 76.7472 83.0305 76.7472C82.5646 76.7472 82.147 76.8523 81.7777 77.0625C81.4084 77.267 81.1158 77.5483 80.8999 77.9062C80.6839 78.2585 80.5703 78.6591 80.5589 79.108V81.571C80.5589 82.1051 80.6641 82.5739 80.8743 82.9773C81.0845 83.375 81.3828 83.6847 81.7692 83.9062C82.1555 84.1278 82.6158 84.2386 83.1499 84.2386C83.5192 84.2386 83.8544 84.1875 84.1555 84.0852C84.4567 83.983 84.7152 83.8324 84.9311 83.6335C85.147 83.4347 85.3089 83.1903 85.4169 82.9006L89.2436 83.0114C89.0845 83.8693 88.7351 84.6165 88.1953 85.2528C87.6612 85.8835 86.9595 86.375 86.0902 86.7273C85.2209 87.0739 84.2152 87.2472 83.0732 87.2472ZM95.1051 87.2216C94.2699 87.2216 93.5284 87.0824 92.8807 86.804C92.2386 86.5199 91.7301 86.0937 91.3551 85.5256C90.9858 84.9517 90.8011 84.233 90.8011 83.3693C90.8011 82.642 90.929 82.0284 91.1847 81.5284C91.4403 81.0284 91.7926 80.6222 92.2415 80.3097C92.6903 79.9972 93.2074 79.7614 93.7926 79.6023C94.3778 79.4375 95.0028 79.3267 95.6676 79.2699C96.4119 79.2017 97.0114 79.1307 97.4659 79.0568C97.9205 78.9773 98.25 78.8665 98.4545 78.7244C98.6648 78.5767 98.7699 78.3693 98.7699 78.1023V78.0597C98.7699 77.6222 98.6193 77.2841 98.3182 77.0455C98.017 76.8068 97.6108 76.6875 97.0994 76.6875C96.5483 76.6875 96.1051 76.8068 95.7699 77.0455C95.4347 77.2841 95.2216 77.6136 95.1307 78.0341L91.2869 77.8977C91.4006 77.1023 91.6932 76.392 92.1648 75.767C92.642 75.1364 93.2955 74.642 94.125 74.2841C94.9602 73.9205 95.9631 73.7386 97.1335 73.7386C97.9688 73.7386 98.7386 73.8381 99.4432 74.0369C100.148 74.2301 100.761 74.5142 101.284 74.8892C101.807 75.2585 102.21 75.7131 102.494 76.2528C102.784 76.7926 102.929 77.4091 102.929 78.1023V87H99.0085V85.1761H98.9062C98.6733 85.6193 98.375 85.9943 98.0114 86.3011C97.6534 86.608 97.2301 86.8381 96.7415 86.9915C96.2585 87.1449 95.7131 87.2216 95.1051 87.2216ZM96.392 84.4943C96.8409 84.4943 97.2443 84.4034 97.6023 84.2216C97.9659 84.0398 98.2557 83.7898 98.4716 83.4716C98.6875 83.1477 98.7955 82.7727 98.7955 82.3466V81.1023C98.6761 81.1648 98.5313 81.2216 98.3608 81.2727C98.196 81.3239 98.0142 81.3722 97.8153 81.4176C97.6165 81.4631 97.4119 81.5028 97.2017 81.5369C96.9915 81.571 96.7898 81.6023 96.5966 81.6307C96.2045 81.6932 95.8693 81.7898 95.5909 81.9205C95.3182 82.0511 95.108 82.2216 94.9602 82.4318C94.8182 82.6364 94.7472 82.8807 94.7472 83.1648C94.7472 83.5966 94.9006 83.9261 95.2074 84.1534C95.5199 84.3807 95.9148 84.4943 96.392 84.4943ZM111.588 87.2472C110.207 87.2472 109.023 86.9631 108.034 86.3949C107.051 85.8267 106.295 85.0369 105.767 84.0256C105.239 83.0085 104.974 81.8324 104.974 80.4972C104.974 79.1562 105.239 77.9801 105.767 76.9688C106.301 75.9517 107.06 75.1591 108.043 74.5909C109.031 74.0227 110.21 73.7386 111.58 73.7386C112.79 73.7386 113.844 73.9574 114.741 74.3949C115.645 74.8324 116.349 75.4517 116.855 76.2528C117.366 77.0483 117.636 77.983 117.665 79.0568H113.77C113.69 78.3864 113.463 77.8608 113.088 77.4801C112.719 77.0994 112.236 76.9091 111.639 76.9091C111.156 76.9091 110.733 77.0455 110.369 77.3182C110.006 77.5852 109.722 77.983 109.517 78.5114C109.318 79.0341 109.219 79.6818 109.219 80.4545C109.219 81.2273 109.318 81.8807 109.517 82.4148C109.722 82.9432 110.006 83.3437 110.369 83.6165C110.733 83.8835 111.156 84.017 111.639 84.017C112.026 84.017 112.366 83.9347 112.662 83.7699C112.963 83.6051 113.21 83.3636 113.403 83.0455C113.597 82.7216 113.719 82.3295 113.77 81.8693H117.665C117.625 82.9489 117.355 83.892 116.855 84.6989C116.361 85.5057 115.665 86.1335 114.767 86.5824C113.875 87.0256 112.815 87.2472 111.588 87.2472ZM127.187 73.9091V76.9773H118.928V73.9091H127.187ZM120.658 70.7727H124.826V82.8835C124.826 83.1392 124.866 83.3466 124.945 83.5057C125.031 83.6591 125.153 83.7699 125.312 83.8381C125.471 83.9006 125.661 83.9318 125.883 83.9318C126.042 83.9318 126.21 83.9176 126.386 83.8892C126.567 83.8551 126.704 83.8267 126.795 83.804L127.425 86.8125C127.227 86.8693 126.945 86.9403 126.582 87.0256C126.224 87.1108 125.795 87.1648 125.295 87.1875C124.317 87.233 123.479 87.1193 122.781 86.8466C122.087 86.5682 121.556 86.1364 121.187 85.5511C120.823 84.9659 120.647 84.2301 120.658 83.3438V70.7727ZM141.56 69.5455H145.719V81.6136C145.714 82.7443 145.444 83.733 144.91 84.5795C144.376 85.4205 143.637 86.0739 142.694 86.5398C141.756 87.0057 140.671 87.2386 139.438 87.2386C138.347 87.2386 137.356 87.0483 136.464 86.6676C135.577 86.2869 134.87 85.696 134.342 84.8949C133.819 84.0937 133.56 83.0682 133.566 81.8182H137.768C137.785 82.267 137.87 82.6506 138.023 82.9688C138.183 83.2812 138.401 83.517 138.68 83.6761C138.958 83.8352 139.29 83.9148 139.677 83.9148C140.08 83.9148 140.421 83.8295 140.7 83.6591C140.978 83.483 141.188 83.2244 141.33 82.8835C141.478 82.5426 141.555 82.1193 141.56 81.6136V69.5455ZM159.797 77.9062L155.97 78.0085C155.93 77.7358 155.822 77.4943 155.646 77.2841C155.47 77.0682 155.24 76.9006 154.956 76.7812C154.678 76.6562 154.354 76.5938 153.984 76.5938C153.501 76.5938 153.089 76.6903 152.749 76.8835C152.413 77.0767 152.249 77.3381 152.254 77.6676C152.249 77.9233 152.351 78.1449 152.561 78.3324C152.777 78.5199 153.161 78.6705 153.712 78.7841L156.234 79.2614C157.541 79.5114 158.513 79.9261 159.149 80.5057C159.791 81.0852 160.115 81.8523 160.121 82.8068C160.115 83.7045 159.848 84.4858 159.32 85.1506C158.797 85.8153 158.081 86.3324 157.172 86.7017C156.263 87.0653 155.223 87.2472 154.053 87.2472C152.183 87.2472 150.709 86.8636 149.629 86.0966C148.555 85.3239 147.942 84.2898 147.788 82.9943L151.905 82.892C151.996 83.3693 152.232 83.733 152.612 83.983C152.993 84.233 153.479 84.358 154.07 84.358C154.604 84.358 155.038 84.2585 155.374 84.0597C155.709 83.8608 155.879 83.5966 155.885 83.267C155.879 82.9716 155.749 82.7358 155.493 82.5597C155.237 82.3778 154.837 82.2358 154.291 82.1335L152.007 81.6989C150.695 81.4602 149.717 81.0199 149.075 80.3778C148.433 79.7301 148.115 78.9062 148.121 77.9062C148.115 77.0312 148.348 76.2841 148.82 75.6648C149.291 75.0398 149.962 74.5625 150.831 74.233C151.7 73.9034 152.726 73.7386 153.908 73.7386C155.68 73.7386 157.078 74.1108 158.101 74.8551C159.124 75.5937 159.689 76.6108 159.797 77.9062Z" fill="white"/>
</svg>
